<svg width="1519" height="201" viewBox="0 0 1519 201" fill="none" xmlns="http://www.w3.org/2000/svg">
<g clip-path="url(#clip0_121_230)">
<g clip-path="url(#clip1_121_230)">
<path d="M99.964 150.348C99.964 144.955 104.294 140.633 109.696 140.633C115.089 140.633 119.411 144.955 119.411 150.348C119.415 151.625 119.167 152.891 118.68 154.072C118.194 155.253 117.479 156.327 116.576 157.23C115.673 158.134 114.6 158.85 113.419 159.338C112.239 159.825 110.973 160.075 109.696 160.071C108.418 160.077 107.151 159.83 105.969 159.343C104.787 158.857 103.713 158.142 102.808 157.239C101.903 156.336 101.186 155.263 100.698 154.082C100.21 152.901 99.9607 151.626 99.964 150.348ZM139.527 150.356C139.527 144.955 143.857 140.625 149.251 140.625C154.644 140.625 158.974 144.955 158.974 150.348C158.974 155.742 154.644 160.071 149.259 160.071C147.981 160.077 146.715 159.83 145.532 159.343C144.35 158.857 143.276 158.142 142.371 157.239C141.467 156.336 140.75 155.263 140.262 154.082C139.774 152.901 139.524 151.635 139.527 150.356ZM47.8213 150.356C47.8213 144.955 52.1511 140.625 57.5446 140.625C62.9381 140.625 67.2596 144.955 67.2596 150.348C67.2596 155.742 62.9381 160.071 57.5446 160.071C56.2672 160.076 55.0015 159.828 53.8204 159.341C52.6392 158.854 51.5659 158.139 50.6623 157.236C49.7586 156.333 49.0424 155.261 48.5548 154.08C48.0672 152.899 47.8179 151.634 47.8213 150.356ZM8.25775 150.356C8.25775 144.955 12.5876 140.625 17.9811 140.625C23.3746 140.625 27.7045 144.955 27.7045 150.348C27.7089 151.626 27.4604 152.893 26.9734 154.074C26.4863 155.256 25.7702 156.33 24.8665 157.233C23.9627 158.137 22.889 158.853 21.7073 159.34C20.5256 159.827 19.2593 160.076 17.9811 160.071C16.7044 160.075 15.4396 159.826 14.2594 159.339C13.0793 158.852 12.007 158.136 11.1042 157.233C10.2014 156.331 9.48593 155.258 8.99888 154.078C8.51183 152.898 8.25444 151.633 8.25775 150.356ZM88.2474 133.171H79.7886V167.199H88.2474V133.171ZM27.6375 167.199H36.0962V133.171H27.6375V135.901C24.689 133.849 21.1798 132.755 17.5875 132.769C7.85575 132.769 0 140.625 0 150.356C0 160.138 7.85575 167.936 17.5875 167.936C21.3144 167.936 24.7732 166.805 27.6375 164.803V167.199ZM158.907 167.199H167.366V133.171H158.907V135.901C155.959 133.849 152.45 132.755 148.857 132.769C139.126 132.769 131.27 140.625 131.27 150.356C131.262 152.668 131.712 154.958 132.593 157.095C133.474 159.232 134.769 161.173 136.404 162.807C138.039 164.441 139.981 165.735 142.118 166.616C144.256 167.496 146.546 167.944 148.857 167.936C152.584 167.936 156.043 166.805 158.907 164.803V167.199ZM170.498 156.144C170.766 163.011 176.629 167.869 186.411 167.869C194.409 167.869 201 164.401 201 156.747C201 151.42 198.002 148.288 191.076 146.948L185.682 145.893C182.215 145.223 179.82 144.553 179.82 142.492C179.82 140.231 182.148 139.226 185.079 139.226C189.35 139.226 191.076 141.362 191.21 143.891H199.735C199.266 137.233 193.94 132.769 185.347 132.769C176.495 132.769 171.227 137.626 171.227 143.958C171.227 151.68 177.491 152.944 182.885 153.949L187.349 154.745C190.548 155.348 191.947 156.278 191.947 158.145C191.947 159.812 190.347 161.47 186.545 161.47C181.017 161.47 179.225 158.606 179.158 156.144H170.498ZM67.201 121.58V135.901C64.2525 133.849 60.7433 132.755 57.151 132.769C47.4193 132.769 39.5635 140.625 39.5635 150.356C39.5635 160.138 47.4193 167.936 57.151 167.936C60.8695 167.936 64.3368 166.805 67.201 164.803V167.199H75.6598V121.58H67.201ZM119.344 121.58V135.901C116.395 133.849 112.886 132.755 109.294 132.769C99.5704 132.769 91.7062 140.625 91.7062 150.356C91.6985 152.668 92.1482 154.958 93.0294 157.095C93.9106 159.232 95.2059 161.173 96.8407 162.807C98.4755 164.441 100.418 165.735 102.555 166.616C104.692 167.496 106.982 167.944 109.294 167.936C113.021 167.936 116.479 166.805 119.344 164.803V167.199H127.803V121.58H119.344ZM21.976 111.53L27.7045 121.58H67.201L51.5481 94.537L21.9844 111.522L21.976 111.53ZM88.2474 130.039V121.58H119.344L86.1787 64.1693L56.5396 81.1538L79.7886 121.58V130.039H88.2474ZM131.94 121.58H171.495L120.349 33.0645L90.7766 50.116L131.94 121.58Z" fill="#040404"/>
</g>
<g clip-path="url(#clip2_121_230)">
<path d="M528.708 25.192C525.233 20.7281 519.158 24.3042 516.483 25.862C497.45 37.1347 494.642 56.9835 488.008 68.3819C482.792 77.5106 474.242 84.2106 466.508 84.7299C460.792 85.1402 454.592 84.0264 448.442 81.338C433.383 74.7971 425.275 66.33 423.3 64.8392C419.242 61.7405 388.05 31.2136 362.633 29.9657C362.633 29.9657 359.533 23.6845 358.758 23.5756C356.908 23.3662 355.008 27.3527 353.625 27.7715C352.375 28.2154 350.183 23.4835 348.917 23.6929C347.642 23.8604 346.4 28.6006 343.917 31.0377C342.083 32.8216 339.867 32.7127 338.608 34.9154C338.175 35.7194 338.325 37.1347 337.833 38.4329C336.775 41.1129 333.242 41.3976 333.208 44.2702C333.208 47.4611 336.183 48.0725 338.783 50.3002C340.85 52.0757 340.992 53.332 343.4 54.1611C345.55 54.8981 348.667 52.595 351.433 53.4241C353.742 54.1025 355.958 54.5966 356.45 56.9667C356.9 59.1107 356.45 62.4775 353.617 62.1006C352.683 61.975 348.633 60.6434 343.633 61.1794C337.592 61.8242 330.692 63.7672 330.017 70.4756C329.675 74.2192 334.3 78.5994 338.808 77.7284C341.9 77.1337 340.442 73.4906 342.133 71.7319C344.358 69.4706 356.9 79.6379 368.567 79.6379C373.508 79.6379 377.158 78.3816 380.792 74.571C381.125 74.3281 381.567 73.7167 382.083 73.6497C382.663 73.8008 383.212 74.05 383.708 74.3867C393.133 81.8991 400.242 96.9992 434.792 97.1751C439.642 97.2337 445.208 99.5117 449.758 103.682C453.758 107.309 456.125 113.104 458.4 118.967C461.883 127.786 468.075 136.295 477.5 145.792C478 146.361 485.75 152.324 486.333 152.768C486.433 152.852 487.033 154.167 486.775 154.904C486.608 160.683 485.75 177.265 498.15 177.96C501.2 178.128 500.442 176.026 500.442 174.527C500.4 171.671 499.9 168.79 501.383 165.817C503.492 161.813 497 159.879 497.142 151.11C497.3 144.544 491.767 145.658 488.942 140.641C487.358 137.769 485.875 136.186 486.025 132.719C486.633 112.786 481.717 99.6541 479.317 96.48C477.425 94.0177 475.792 93.1049 477.592 91.9575C487.925 85.1319 490.3 78.7752 490.3 78.7752C495.8 65.8694 500.767 54.1109 507.592 48.8765C508.975 47.8715 512.5 45.1915 514.692 44.1865C521.05 41.1547 524.467 39.3457 526.258 37.587C529.225 34.7646 531.55 28.7681 528.708 25.192Z" fill="#040404"/>
</g>
<path d="M860 65.325L712.952 127.937C700.758 133.096 690.515 135.683 682.232 135.683C672.852 135.683 666.043 132.4 661.822 125.826C659.167 121.605 658.389 116.253 659.477 109.763C660.566 103.272 663.464 96.3628 668.154 89.0095C672.065 83.0633 678.472 75.2494 687.391 65.5595C684.366 70.3221 682.147 75.5514 680.825 81.0365C678.48 91.0446 680.591 98.3895 687.157 103.08C690.281 105.265 694.577 106.363 700.054 106.363C704.426 106.363 709.35 105.659 714.828 104.252L860 65.325Z" fill="#040404"/>
<path d="M1113.92 96.145C1136.87 86.9325 1151.15 81.6395 1189 72.36C1168.44 73.7251 1122.98 76.8574 1091.65 83.0046L1113.92 96.1534M1042.59 126.73H1072.59C1078.53 117.685 1084.44 113.28 1091.32 108.381C1086.1 106.349 1080.84 104.392 1075.56 102.51C1056.42 111.002 1045.77 122.401 1042.62 126.73M1048.52 93.8335C1021.77 103.44 1006.91 113.875 996.867 126.73H1029.99C1033.22 122.216 1045.51 109.202 1068.6 100.148C1061.95 97.8948 1055.26 95.7893 1048.52 93.8335ZM1062.25 73.5995H989C1062.85 86.9995 1098.44 104.252 1155.67 128.64C1150.77 124.963 1071.91 78.2811 1062.26 73.5995" fill="#040404"/>
<g clip-path="url(#clip3_121_230)">
<path d="M1419.92 86.3127L1429.22 70.0903L1460.83 68.0636L1461.93 66.0871L1432.72 64.0603L1439.59 52.2181H1493.77C1510.44 52.2181 1522.75 58.2062 1517.95 75.6681C1516.53 81.0113 1509.75 94.3695 1489.85 99.9472C1494.09 100.45 1504.59 105.106 1502.74 117.175C1499.53 138.598 1471.84 148.782 1456.41 148.782L1392.41 148.832L1389.23 136.437L1422.77 134.092L1423.92 132.107L1387.52 129.896L1383.61 115.198L1435.35 112.158L1436.5 110.223L1343.57 104.419L1348.04 96.6726L1448.11 90.182L1449.26 88.2473L1419.92 86.3127ZM1461.79 89.5371L1471 89.4869C1477.18 89.445 1483.58 86.6393 1485.94 80.9611C1488.1 75.6681 1485.2 71.154 1481.33 71.1958H1472.39L1461.79 89.5371ZM1451.15 107.92L1440.05 127.225H1450.64C1455.58 127.225 1464.38 124.779 1467.09 117.778C1469.62 111.237 1464.97 107.92 1461.75 107.92H1451.15H1451.15ZM1370.43 137.727L1363.98 148.74L1318 148.824L1322.47 141.094L1370.43 137.727ZM1373.65 52.1678L1410.64 52.2181L1413.46 62.6701L1369.27 59.9063L1373.65 52.1678ZM1415.53 70.9697L1419.58 86.3127L1356.42 82.1671L1360.84 74.4621L1415.53 70.9697ZM1383.37 115.198L1375.35 129.109L1330.8 126.58L1335.27 118.841L1383.37 115.198Z" fill="#040404"/>
</g>
</g>
<defs>
<clipPath id="clip0_121_230">
<rect width="1519" height="201" fill="white"/>
</clipPath>
<clipPath id="clip1_121_230">
<rect width="201" height="201" fill="white"/>
</clipPath>
<clipPath id="clip2_121_230">
<rect width="200" height="201" fill="white" transform="translate(330)"/>
</clipPath>
<clipPath id="clip3_121_230">
<rect width="201" height="201" fill="white" transform="translate(1318)"/>
</clipPath>
</defs>
</svg>
