<svg width="99" height="99" viewBox="0 0 99 99" fill="none" xmlns="http://www.w3.org/2000/svg">
<circle cx="49.5" cy="49.5" r="49.5" fill="#FF5C00"/>
<path d="M58.0161 41.8355L39.1209 60.7838C38.6951 61.2096 38.1891 61.4226 37.6029 61.4226C37.0168 61.4226 36.5115 61.2096 36.0871 60.7838C35.6613 60.358 35.4484 59.852 35.4484 59.2658C35.4484 58.6797 35.6613 58.1744 36.0871 57.75L55.0355 38.8548H38.8548C38.2516 38.8548 37.7456 38.6504 37.3368 38.2417C36.928 37.8329 36.7244 37.3276 36.7258 36.7258C36.7258 36.1226 36.9302 35.6166 37.3389 35.2078C37.7477 34.799 38.253 34.5953 38.8548 34.5967H60.1451C60.7484 34.5967 61.2544 34.8011 61.6631 35.2099C62.0719 35.6187 62.2756 36.124 62.2742 36.7258V58.0161C62.2742 58.6193 62.0698 59.1253 61.661 59.5341C61.2522 59.9429 60.7469 60.1466 60.1451 60.1451C59.5419 60.1451 59.0359 59.9407 58.6271 59.532C58.2184 59.1232 58.0147 58.6179 58.0161 58.0161V41.8355Z" fill="white"/>
</svg>
