<svg width="632" height="520" viewBox="0 0 632 520" fill="none" xmlns="http://www.w3.org/2000/svg">
<g clip-path="url(#clip0_246_144)">
<rect width="632" height="520" rx="30" fill="black"/>
<g opacity="0.5">
<path d="M1428.8 -227.57C1425.98 109.641 1125.31 413.615 788.094 413.131C450.882 412.648 55.9241 109.641 147.392 -227.57C238.86 -564.782 450.882 -839.637 788.094 -868.272C1125.31 -896.908 1431.61 -564.782 1428.8 -227.57Z" stroke="url(#paint0_linear_246_144)" stroke-opacity="0.4" stroke-width="2.5" stroke-linecap="round"/>
<path d="M1389.34 -238.973C1387.11 66.8036 1114.14 342.386 808.365 342.002C502.588 341.619 154.903 66.8036 227.389 -238.973C299.876 -544.749 502.588 -797.255 808.365 -819.948C1114.14 -842.641 1391.57 -544.749 1389.34 -238.973Z" stroke="url(#paint1_linear_246_144)" stroke-opacity="0.4" stroke-width="2.5" stroke-linecap="round"/>
<path d="M1339.75 -244.674C1337.83 29.6678 1092.84 276.905 818.5 276.575C544.158 276.245 234.814 29.6678 297.251 -244.674C359.687 -519.015 544.158 -746.376 818.5 -765.923C1092.84 -785.47 1341.67 -519.015 1339.75 -244.674Z" stroke="url(#paint2_linear_246_144)" stroke-opacity="0.4" stroke-width="2.5" stroke-linecap="round"/>
<path d="M1286.1 -248.095C1284.38 -5.1882 1067.49 213.724 824.581 213.428C581.675 213.131 306.976 -5.1882 363.059 -248.095C419.142 -491.001 581.675 -692.06 824.581 -709.617C1067.49 -727.175 1287.83 -491.001 1286.1 -248.095Z" stroke="url(#paint3_linear_246_144)" stroke-opacity="0.4" stroke-width="2.5" stroke-linecap="round"/>
<path d="M1230.43 -250.375C1228.84 -38.9035 1040.11 151.694 828.635 151.421C617.164 151.148 375.199 -38.9035 426.839 -250.375C478.48 -461.847 617.164 -636.004 828.635 -652.171C1040.11 -668.338 1232.02 -461.847 1230.43 -250.375Z" stroke="url(#paint4_linear_246_144)" stroke-opacity="0.4" stroke-width="2.5" stroke-linecap="round"/>
<path d="M1173.6 -252.004C1172.11 -71.9674 1011.57 90.3212 831.532 90.0656C651.495 89.81 441.138 -71.9674 489.462 -252.004C537.786 -432.041 651.495 -578.945 831.532 -594.074C1011.57 -609.202 1175.09 -432.041 1173.6 -252.004Z" stroke="url(#paint5_linear_246_144)" stroke-opacity="0.4" stroke-width="2.5" stroke-linecap="round"/>
<path d="M1116.05 -253.226C1114.64 -104.624 982.305 29.3593 833.703 29.1174C685.102 28.8755 505.626 -104.624 551.36 -253.226C597.094 -401.827 685.102 -521.251 833.703 -535.569C982.305 -549.887 1117.45 -401.827 1116.05 -253.226Z" stroke="url(#paint6_linear_246_144)" stroke-opacity="0.4" stroke-width="2.5" stroke-linecap="round"/>
</g>
</g>
<defs>
<linearGradient id="paint0_linear_246_144" x1="134" y1="-870" x2="1428.81" y2="-870" gradientUnits="userSpaceOnUse">
<stop stop-color="white"/>
<stop offset="0.9999" stop-color="white" stop-opacity="0.3"/>
</linearGradient>
<linearGradient id="paint1_linear_246_144" x1="217.691" y1="-821.167" x2="1389.35" y2="-821.167" gradientUnits="userSpaceOnUse">
<stop stop-color="white"/>
<stop offset="0.9999" stop-color="white" stop-opacity="0.3"/>
</linearGradient>
<linearGradient id="paint2_linear_246_144" x1="289.128" y1="-766.936" x2="1339.76" y2="-766.936" gradientUnits="userSpaceOnUse">
<stop stop-color="white"/>
<stop offset="0.9999" stop-color="white" stop-opacity="0.3"/>
</linearGradient>
<linearGradient id="paint3_linear_246_144" x1="355.689" y1="-710.539" x2="1286.11" y2="-710.539" gradientUnits="userSpaceOnUse">
<stop stop-color="white"/>
<stop offset="0.9999" stop-color="white" stop-opacity="0.3"/>
</linearGradient>
<linearGradient id="paint4_linear_246_144" x1="419.789" y1="-653.062" x2="1230.44" y2="-653.062" gradientUnits="userSpaceOnUse">
<stop stop-color="white"/>
<stop offset="0.9999" stop-color="white" stop-opacity="0.3"/>
</linearGradient>
<linearGradient id="paint5_linear_246_144" x1="482.435" y1="-594.978" x2="1173.61" y2="-594.978" gradientUnits="userSpaceOnUse">
<stop stop-color="white"/>
<stop offset="0.9999" stop-color="white" stop-opacity="0.3"/>
</linearGradient>
<linearGradient id="paint6_linear_246_144" x1="544.1" y1="-536.53" x2="1116.06" y2="-536.53" gradientUnits="userSpaceOnUse">
<stop stop-color="white"/>
<stop offset="0.9999" stop-color="white" stop-opacity="0.3"/>
</linearGradient>
<clipPath id="clip0_246_144">
<rect width="632" height="520" rx="30" fill="white"/>
</clipPath>
</defs>
</svg>
