<svg width="201" height="135" viewBox="0 0 201 135" fill="none" xmlns="http://www.w3.org/2000/svg">
<path d="M99.964 117.348C99.964 111.955 104.294 107.633 109.696 107.633C115.089 107.633 119.411 111.955 119.411 117.348C119.415 118.625 119.167 119.891 118.68 121.072C118.194 122.253 117.479 123.327 116.576 124.23C115.673 125.134 114.6 125.85 113.419 126.338C112.239 126.825 110.973 127.075 109.696 127.071C108.418 127.077 107.151 126.83 105.969 126.343C104.787 125.857 103.713 125.142 102.808 124.239C101.903 123.336 101.186 122.263 100.698 121.082C100.21 119.901 99.9607 118.626 99.964 117.348ZM139.527 117.356C139.527 111.955 143.857 107.625 149.251 107.625C154.644 107.625 158.974 111.955 158.974 117.348C158.974 122.742 154.644 127.071 149.259 127.071C147.981 127.077 146.715 126.83 145.532 126.343C144.35 125.857 143.276 125.142 142.371 124.239C141.467 123.336 140.75 122.263 140.262 121.082C139.774 119.901 139.524 118.635 139.527 117.356ZM47.8213 117.356C47.8213 111.955 52.1511 107.625 57.5446 107.625C62.9381 107.625 67.2596 111.955 67.2596 117.348C67.2596 122.742 62.9381 127.071 57.5446 127.071C56.2672 127.076 55.0015 126.828 53.8204 126.341C52.6392 125.854 51.5659 125.139 50.6623 124.236C49.7586 123.333 49.0424 122.261 48.5548 121.08C48.0672 119.899 47.8179 118.634 47.8213 117.356ZM8.25775 117.356C8.25775 111.955 12.5876 107.625 17.9811 107.625C23.3746 107.625 27.7045 111.955 27.7045 117.348C27.7089 118.626 27.4604 119.893 26.9734 121.074C26.4863 122.256 25.7702 123.33 24.8665 124.233C23.9627 125.137 22.889 125.853 21.7073 126.34C20.5256 126.827 19.2593 127.076 17.9811 127.071C16.7044 127.075 15.4396 126.826 14.2594 126.339C13.0793 125.852 12.007 125.136 11.1042 124.233C10.2014 123.331 9.48593 122.258 8.99888 121.078C8.51183 119.898 8.25444 118.633 8.25775 117.356ZM88.2474 100.171H79.7886V134.199H88.2474V100.171ZM27.6375 134.199H36.0962V100.171H27.6375V102.901C24.689 100.849 21.1798 99.7554 17.5875 99.7689C7.85575 99.7689 0 107.625 0 117.356C0 127.138 7.85575 134.936 17.5875 134.936C21.3144 134.936 24.7732 133.805 27.6375 131.803V134.199ZM158.907 134.199H167.366V100.171H158.907V102.901C155.959 100.849 152.45 99.7554 148.857 99.7689C139.126 99.7689 131.27 107.625 131.27 117.356C131.262 119.668 131.712 121.958 132.593 124.095C133.474 126.232 134.769 128.173 136.404 129.807C138.039 131.441 139.981 132.735 142.118 133.616C144.256 134.496 146.546 134.944 148.857 134.936C152.584 134.936 156.043 133.805 158.907 131.803V134.199ZM170.498 123.144C170.766 130.011 176.629 134.869 186.411 134.869C194.409 134.869 201 131.401 201 123.747C201 118.42 198.002 115.288 191.076 113.948L185.682 112.893C182.215 112.223 179.82 111.553 179.82 109.492C179.82 107.231 182.148 106.226 185.079 106.226C189.35 106.226 191.076 108.362 191.21 110.891H199.735C199.266 104.233 193.94 99.7689 185.347 99.7689C176.495 99.7689 171.227 104.626 171.227 110.958C171.227 118.68 177.491 119.944 182.885 120.949L187.349 121.745C190.548 122.348 191.947 123.278 191.947 125.145C191.947 126.812 190.347 128.47 186.545 128.47C181.017 128.47 179.225 125.606 179.158 123.144H170.498ZM67.201 88.5799V102.901C64.2525 100.849 60.7433 99.7554 57.151 99.7689C47.4193 99.7689 39.5635 107.625 39.5635 117.356C39.5635 127.138 47.4193 134.936 57.151 134.936C60.8695 134.936 64.3368 133.805 67.201 131.803V134.199H75.6598V88.5799H67.201ZM119.344 88.5799V102.901C116.395 100.849 112.886 99.7554 109.294 99.7689C99.5704 99.7689 91.7062 107.625 91.7062 117.356C91.6985 119.668 92.1482 121.958 93.0294 124.095C93.9106 126.232 95.2059 128.173 96.8407 129.807C98.4755 131.441 100.418 132.735 102.555 133.616C104.692 134.496 106.982 134.944 109.294 134.936C113.021 134.936 116.479 133.805 119.344 131.803V134.199H127.803V88.5799H119.344ZM21.976 78.5299L27.7045 88.5799H67.201L51.5481 61.537L21.9844 78.5215L21.976 78.5299ZM88.2474 97.0386V88.5799H119.344L86.1787 31.1693L56.5396 48.1538L79.7886 88.5799V97.0386H88.2474ZM131.94 88.5799H171.495L120.349 0.0645142L90.7766 17.116L131.94 88.5799Z" fill="#040404"/>
</svg>
