<svg width="201" height="97" viewBox="0 0 201 97" fill="none" xmlns="http://www.w3.org/2000/svg">
<path d="M101.915 34.3127L111.22 18.0903L142.827 16.0636L143.933 14.0871L114.721 12.0603L121.588 0.218097H175.775C192.441 0.218097 204.752 6.20622 199.953 23.6681C198.529 29.0113 191.754 42.3695 171.847 47.9472C176.093 48.4497 186.587 53.1062 184.744 65.1746C181.528 86.5978 153.84 96.7818 138.405 96.7818L74.4119 96.8321L71.2294 84.4371L104.771 82.0921L105.919 80.1072L69.5209 77.8962L65.6097 63.1981L117.351 60.158L118.498 58.2233L25.5689 52.4195L30.0411 44.6726L130.106 38.182L131.261 36.2473L101.915 34.3127ZM143.79 37.5371L153.003 37.4869C159.184 37.445 165.582 34.6393 167.936 28.9611C170.105 23.6681 167.199 19.154 163.329 19.1958H154.393L143.79 37.5371ZM133.154 55.9202L122.049 75.2246H132.643C137.576 75.2246 146.378 72.7791 149.092 65.7776C151.621 59.2367 146.973 55.9202 143.748 55.9202H133.146H133.154ZM52.4275 85.7268L45.9787 96.74L0 96.8237L4.47225 89.0936L52.4275 85.7268ZM55.6519 0.167847L92.6442 0.218097L95.4582 10.6701L51.2718 7.90634L55.6519 0.167847ZM97.5269 18.9697L101.58 34.3127L38.4161 30.1671L42.8381 22.4621L97.5269 18.9697ZM65.3669 63.1981L57.352 77.109L12.797 74.5797L17.2693 66.8412L65.3669 63.1981Z" fill="#040404"/>
</svg>
