<svg width="201" height="71" viewBox="0 0 201 71" fill="none" xmlns="http://www.w3.org/2000/svg">
<path d="M201 0.325012L53.9517 62.9365C41.7577 68.0955 31.5151 70.6834 23.2322 70.6834C13.8522 70.6834 7.04337 67.4004 2.82237 60.826C0.167497 56.605 -0.611378 51.2534 0.477372 44.7628C1.56612 38.2721 4.46387 31.3628 9.15387 24.0095C13.065 18.0633 19.4719 10.2494 28.3912 0.559511C25.3659 5.32209 23.1474 10.5514 21.8252 16.0365C19.4802 26.0446 21.5907 33.3895 28.1567 38.0795C31.2806 40.2654 35.577 41.3625 41.0542 41.3625C45.426 41.3625 50.3505 40.659 55.8277 39.252L201 0.325012Z" fill="#040404"/>
</svg>
