<svg width="200" height="155" viewBox="0 0 200 155" fill="none" xmlns="http://www.w3.org/2000/svg">
<path d="M198.708 2.19198C195.233 -2.27189 189.158 1.30423 186.483 2.86198C167.45 14.1347 164.642 33.9835 158.008 45.3819C152.792 54.5106 144.242 61.2106 136.508 61.7299C130.792 62.1402 124.592 61.0264 118.442 58.338C103.383 51.7971 95.275 43.33 93.3 41.8392C89.2417 38.7405 58.05 8.21361 32.6333 6.96573C32.6333 6.96573 29.5333 0.684483 28.7583 0.575608C26.9083 0.366233 25.0083 4.35273 23.625 4.77148C22.375 5.21536 20.1833 0.483482 18.9167 0.692857C17.6417 0.860357 16.4 5.60061 13.9167 8.03773C12.0833 9.82161 9.86668 9.71273 8.60835 11.9154C8.17501 12.7194 8.32501 14.1347 7.83335 15.4329C6.77501 18.1129 3.24168 18.3976 3.20835 21.2702C3.20835 24.4611 6.18335 25.0725 8.78335 27.3002C10.85 29.0757 10.9917 30.332 13.4 31.1611C15.55 31.8981 18.6667 29.595 21.4333 30.4241C23.7417 31.1025 25.9583 31.5966 26.45 33.9667C26.9 36.1107 26.45 39.4775 23.6167 39.1006C22.6833 38.975 18.6333 37.6434 13.6333 38.1794C7.59168 38.8242 0.691681 40.7672 0.0166808 47.4756C-0.324986 51.2192 4.30001 55.5994 8.80835 54.7284C11.9 54.1337 10.4417 50.4906 12.1333 48.7319C14.3583 46.4706 26.9 56.6379 38.5667 56.6379C43.5083 56.6379 47.1583 55.3816 50.7917 51.571C51.125 51.3281 51.5667 50.7167 52.0833 50.6497C52.6628 50.8008 53.2123 51.05 53.7083 51.3867C63.1333 58.8991 70.2417 73.9992 104.792 74.1751C109.642 74.2337 115.208 76.5117 119.758 80.6825C123.758 84.3089 126.125 90.1044 128.4 95.9669C131.883 104.786 138.075 113.295 147.5 122.792C148 123.361 155.75 129.324 156.333 129.768C156.433 129.852 157.033 131.167 156.775 131.904C156.608 137.683 155.75 154.265 168.15 154.96C171.2 155.128 170.442 153.026 170.442 151.527C170.4 148.671 169.9 145.79 171.383 142.817C173.492 138.813 167 136.879 167.142 128.11C167.3 121.544 161.767 122.658 158.942 117.641C157.358 114.769 155.875 113.186 156.025 109.719C156.633 89.7861 151.717 76.6541 149.317 73.48C147.425 71.0177 145.792 70.1049 147.592 68.9575C157.925 62.1319 160.3 55.7752 160.3 55.7752C165.8 42.8694 170.767 31.1109 177.592 25.8765C178.975 24.8715 182.5 22.1915 184.692 21.1865C191.05 18.1547 194.467 16.3457 196.258 14.587C199.225 11.7646 201.55 5.76811 198.708 2.19198Z" fill="#040404"/>
</svg>
