<svg width="200" height="57" viewBox="0 0 200 57" fill="none" xmlns="http://www.w3.org/2000/svg">
<path d="M124.925 24.145C147.867 14.9325 162.15 9.63949 200 0.359985C179.442 1.72511 133.983 4.85736 102.65 11.0046L124.925 24.1534M53.5917 54.7305H83.5917C89.5333 45.6855 95.4417 41.2802 102.325 36.3809C97.0972 34.3493 91.8411 32.3922 86.5583 30.51C67.4167 39.0022 56.7667 50.4006 53.6167 54.7305M59.525 21.8335C32.775 31.4396 17.9083 41.8749 7.86667 54.7305H40.9917C44.2167 50.2164 56.5083 37.2016 79.6 28.1482C72.9527 25.8948 66.2649 23.7893 59.525 21.8335ZM73.25 1.59948H0C73.85 14.9995 109.442 32.252 166.667 56.64C161.775 52.9634 82.9083 6.28111 73.2583 1.59948" fill="#040404"/>
</svg>
